<?xml version="1.0" encoding="UTF-8" standalone="no"?>
<!-- Created with Inkscape (http://www.inkscape.org/) -->

<svg
   xmlns:dc="http://purl.org/dc/elements/1.1/"
   xmlns:cc="http://creativecommons.org/ns#"
   xmlns:rdf="http://www.w3.org/1999/02/22-rdf-syntax-ns#"
   xmlns:svg="http://www.w3.org/2000/svg"
   xmlns="http://www.w3.org/2000/svg"
   xmlns:sodipodi="http://sodipodi.sourceforge.net/DTD/sodipodi-0.dtd"
   xmlns:inkscape="http://www.inkscape.org/namespaces/inkscape"
   width="210mm"
   height="297mm"
   viewBox="0 0 210 297"
   version="1.1"
   id="svg8890"
   inkscape:version="0.92.4 (5da689c313, 2019-01-14)"
   sodipodi:docname="fleurz.svg">
  <defs
     id="defs8884">
    <marker
       inkscape:stockid="Arrow1Mstart"
       orient="auto"
       refY="0"
       refX="0"
       id="Arrow1Mstart"
       style="overflow:visible"
       inkscape:isstock="true">
      <path
         inkscape:connector-curvature="0"
         id="path4564"
         d="M 0,0 5,-5 -12.5,0 5,5 Z"
         style="fill:#000000;fill-opacity:1;fill-rule:evenodd;stroke:#000000;stroke-width:1.00000003pt;stroke-opacity:1"
         transform="matrix(0.4,0,0,0.4,4,0)" />
    </marker>
    <marker
       inkscape:stockid="Arrow1Mend"
       orient="auto"
       refY="0"
       refX="0"
       id="Arrow1Mend"
       style="overflow:visible"
       inkscape:isstock="true">
      <path
         inkscape:connector-curvature="0"
         id="path4567"
         d="M 0,0 5,-5 -12.5,0 5,5 Z"
         style="fill:#000000;fill-opacity:1;fill-rule:evenodd;stroke:#000000;stroke-width:1.00000003pt;stroke-opacity:1"
         transform="matrix(-0.4,0,0,-0.4,-4,0)" />
    </marker>
  </defs>
  <sodipodi:namedview
     id="base"
     pagecolor="#ffffff"
     bordercolor="#666666"
     borderopacity="1.0"
     inkscape:pageopacity="0.0"
     inkscape:pageshadow="2"
     inkscape:zoom="0.98994949"
     inkscape:cx="-93.797269"
     inkscape:cy="1007.2864"
     inkscape:document-units="mm"
     inkscape:current-layer="layer1"
     showgrid="true"
     inkscape:window-width="2560"
     inkscape:window-height="1417"
     inkscape:window-x="-8"
     inkscape:window-y="-8"
     inkscape:window-maximized="1">
    <inkscape:grid
       type="xygrid"
       id="grid9435" />
  </sodipodi:namedview>
  <metadata
     id="metadata8887">
    <rdf:RDF>
      <cc:Work
         rdf:about="">
        <dc:format>image/svg+xml</dc:format>
        <dc:type
           rdf:resource="http://purl.org/dc/dcmitype/StillImage" />
        <dc:title></dc:title>
      </cc:Work>
    </rdf:RDF>
  </metadata>
  <g
     inkscape:label="Layer 1"
     inkscape:groupmode="layer"
     id="layer1">
    <g
       id="g9524"
       transform="matrix(13.542626,0,0,14.478007,0.06857625,-0.18577345)">
      <path
         sodipodi:nodetypes="cscscc"
         inkscape:connector-curvature="0"
         id="path4539"
         d="m 3.7584546,0.51378225 c 0,0 -0.317841,0.57142295 -0.574298,0.94539895 -0.300511,0.438218 -0.944501,1.2618182 -0.944501,1.2618182 1.044937,1.2074908 2.01942,3.7957249 1.153464,4.3825218 l -0.437275,0.29631 0.783746,1.6285297"
         style="fill:none;stroke:#000000;stroke-width:0.18305525px;stroke-linecap:butt;stroke-linejoin:miter;stroke-opacity:1" />
      <path
         sodipodi:nodetypes="cscscc"
         inkscape:connector-curvature="0"
         id="path4539-3"
         d="m 3.7584546,0.51378225 c 0,0 0.317841,0.57142295 0.574298,0.94539895 0.300511,0.438218 0.944501,1.2618182 0.944501,1.2618182 -1.044937,1.2074908 -2.01942,3.7957249 -1.153464,4.3825218 l 0.437275,0.29631 -0.783746,1.6285297"
         style="fill:none;stroke:#000000;stroke-width:0.18305527px;stroke-linecap:butt;stroke-linejoin:miter;stroke-opacity:1" />
      <path
         inkscape:connector-curvature="0"
         id="path4556"
         d="M 3.7623276,0.20102625 V 9.2430259"
         style="fill:none;stroke:#000000;stroke-width:0.09000001;stroke-linecap:butt;stroke-linejoin:miter;stroke-miterlimit:4;stroke-dasharray:none;stroke-opacity:1;marker-start:url(#Arrow1Mstart);marker-end:url(#Arrow1Mend)" />
      <path
         sodipodi:nodetypes="cscscc"
         inkscape:connector-curvature="0"
         id="path4539-31"
         d="m 3.7584546,0.51394825 c 0,0 -0.216974,0.57500095 -0.392044,0.95131895 -0.205143,0.440963 -0.64476,1.269721 -0.64476,1.269721 0.713324,1.2150561 1.378551,3.819499 0.787408,4.409972 l -0.298504,0.2981651 0.535023,1.6387296"
         style="fill:none;stroke:#000000;stroke-width:0.1;stroke-linecap:butt;stroke-linejoin:miter;stroke-miterlimit:4;stroke-dasharray:none;stroke-opacity:1" />
      <path
         sodipodi:nodetypes="cscscc"
         inkscape:connector-curvature="0"
         id="path4539-3-6"
         d="m 3.7584546,0.51394825 c 0,0 0.216974,0.57500095 0.392044,0.95131895 0.205142,0.440963 0.644759,1.269721 0.644759,1.269721 -0.713324,1.2150561 -1.378551,3.819499 -0.787408,4.409972 l 0.298505,0.2981651 -0.535023,1.6387296"
         style="fill:none;stroke:#000000;stroke-width:0.1;stroke-linecap:butt;stroke-linejoin:miter;stroke-miterlimit:4;stroke-dasharray:none;stroke-opacity:1" />
      <path
         sodipodi:nodetypes="caccsssacaacc"
         inkscape:connector-curvature="0"
         id="path5452"
         d="m 2.4643886,4.0668562 c 0.29946,0.2406841 0.655746,0.5941431 0.829156,0.9873922 0.241762,0.548254 0.318015,1.2003879 0.236814,1.7819079 -1.545053,0.9537869 -1.961438,-0.2013019 -1.961438,-0.2013019 0,0 0.787576,0.41353 1.05805,0.1794238 0.376702,-0.3260508 -0.244506,-0.2170769 0.143034,-0.7781028 0.244263,-0.3536101 -1.084187,-1.5104322 -1.590489,-1.380685 -0.18732298,0.048 -0.27261298,0.2894838 -0.33805898,0.4714488 -0.08764,0.243658 -0.05312,0.7749982 -0.05312,0.7749982 0,0 -0.808997,-1.221305 -0.621533,-1.841415 0.09183,-0.30377 0.439272,-0.535826 0.753197,-0.5823051 0.54497998,-0.08069 1.18929598,0.305753 1.54438398,0.5886421 z"
         style="fill:none;stroke:#000000;stroke-width:0.183;stroke-linecap:butt;stroke-linejoin:miter;stroke-miterlimit:4;stroke-dasharray:none;stroke-opacity:1" />
      <path
         sodipodi:nodetypes="caccsssacaacc"
         inkscape:connector-curvature="0"
         id="path5452-4"
         d="m 5.0443216,4.0959313 c -0.29946,0.240684 -0.655745,0.594143 -0.829156,0.9873919 -0.241761,0.548254 -0.318015,1.2003881 -0.236814,1.7819082 1.545053,0.9537869 1.961438,-0.2013022 1.961438,-0.2013022 0,0 -0.787576,0.41353 -1.05805,0.179424 -0.376702,-0.3260508 0.244506,-0.2170768 -0.143033,-0.778103 -0.244264,-0.3536098 1.084186,-1.5104319 1.590488,-1.380685 0.187323,0.048 0.272613,0.289484 0.338059,0.4714491 0.08764,0.243658 0.05312,0.7749979 0.05312,0.7749979 0,0 0.808997,-1.221305 0.621533,-1.841415 -0.09183,-0.30377 -0.439272,-0.535826 -0.753197,-0.5823048 -0.54498,-0.08069 -1.189296,0.305753 -1.544384,0.5886418 z"
         style="fill:none;stroke:#000000;stroke-width:0.183;stroke-linecap:butt;stroke-linejoin:miter;stroke-miterlimit:4;stroke-dasharray:none;stroke-opacity:1" />
      <path
         sodipodi:nodetypes="ccccc"
         inkscape:connector-curvature="0"
         id="path5484"
         d="m 2.8297736,5.9552002 1.842317,0.025321 c 0.129423,0.229331 0.341566,0.326649 0.09385,0.68946 l -1.994224,-0.036451 c -0.241528,-0.1731288 -0.09296,-0.4590219 0.05805,-0.6783329 z"
         style="fill:#ffffff;fill-opacity:1;stroke:#000000;stroke-width:0.16500001;stroke-linecap:butt;stroke-linejoin:miter;stroke-miterlimit:4;stroke-dasharray:none;stroke-opacity:1" />
      <path
         inkscape:connector-curvature="0"
         id="path5494"
         d="m 3.0667876,5.9588003 -0.237014,-0.0036 v -0.02809 c 0,-0.04107 -0.0859,-0.2100302 -0.159703,-0.314108 -0.03523,-0.04968 -0.123131,-0.151557 -0.195343,-0.226397 -0.297807,-0.3086481 -0.66392,-0.561063 -0.963359,-0.6641841 -0.101321,-0.03489 -0.132336,-0.04001 -0.245268,-0.04048 -0.117193,-4.763e-4 -0.13516,0.00259 -0.192167,0.03264 -0.07612,0.04016 -0.15891598,0.1295271 -0.21035698,0.2270451 -0.09606,0.1821029 -0.163846,0.4316838 -0.163846,0.6032569 0,0.04313 -0.0043,0.07842 -0.0097,0.07842 -0.01384,0 -0.200523,-0.377108 -0.265543,-0.5363911 -0.1446731,-0.354415 -0.1991381,-0.65703 -0.1508771,-0.838285 0.03843,-0.144337 0.14683,-0.279279 0.309809,-0.385673 0.260249,-0.169893 0.53625098,-0.190445 0.91466708,-0.06811 0.260085,0.08408 0.628236,0.2920931 0.883528,0.4992132 0.234792,0.190487 0.498687,0.4728538 0.629876,0.6739638 0.152641,0.2339941 0.27816,0.5851832 0.340922,0.9538592 0.0073,0.04272 0.0057,0.04596 -0.0204,0.04338 -0.01554,-0.00151 -0.134917,-0.0044 -0.265274,-0.0064 z"
         style="fill:#000000;fill-opacity:1;stroke:none;stroke-width:0.01231239" />
      <path
         inkscape:connector-curvature="0"
         id="path5494-7"
         d="m 4.4350766,5.9841202 0.237014,-0.0036 v -0.02809 c 0,-0.04107 0.0859,-0.21003 0.159703,-0.3141081 0.03523,-0.04968 0.123131,-0.151557 0.195343,-0.2263968 0.297807,-0.3086481 0.66392,-0.561063 0.963359,-0.664184 0.101321,-0.03489 0.132336,-0.04001 0.245268,-0.04048 0.117193,-4.762e-4 0.13516,0.00259 0.192167,0.03264 0.07612,0.04016 0.158916,0.1295271 0.210357,0.2270451 0.09606,0.1821031 0.163846,0.4316841 0.163846,0.6032571 0,0.04313 0.0043,0.07842 0.0097,0.07842 0.01384,0 0.200523,-0.377108 0.265543,-0.5363909 0.144672,-0.3544165 0.199137,-0.6570313 0.150877,-0.8382865 -0.03843,-0.1443368 -0.14683,-0.2792788 -0.309809,-0.3856728 -0.260249,-0.1698932 -0.536252,-0.1904452 -0.914667,-0.06811 -0.260086,0.08408 -0.628237,0.2920931 -0.883529,0.4992129 -0.234792,0.1904871 -0.498687,0.4728541 -0.629875,0.6739642 -0.152641,0.233994 -0.278161,0.5851829 -0.340923,0.9538589 -0.0073,0.04272 -0.0057,0.04596 0.0204,0.04338 0.01554,-0.00151 0.134917,-0.0044 0.265274,-0.0064 z"
         style="fill:#000000;fill-opacity:1;stroke:none;stroke-width:0.01231239" />
      <path
         inkscape:connector-curvature="0"
         id="path7002"
         d="m 2.2994716,7.0692672 c -0.122844,-0.02172 -0.226135,-0.06227 -0.320954,-0.1260078 -0.05854,-0.03935 -0.157314,-0.123112 -0.151746,-0.1286801 0.0014,-0.0014 0.01079,6.879e-4 0.02085,0.0047 0.01006,0.004 0.05531,0.01986 0.100567,0.03527 0.169036,0.05757 0.309631,0.08484 0.439917,0.08532 0.15185,5.556e-4 0.242671,-0.03187 0.336592,-0.120228 0.0481,-0.04525 0.106448,-0.118115 0.106448,-0.1329359 0,-0.0049 0.02341,-0.006 0.07754,-0.0039 0.04264,0.00169 0.182208,0.0048 0.310142,0.0069 l 0.232607,0.0039 v 0.023471 c 0,0.023439 -8.3e-5,0.023511 -0.0807,0.06935 -0.236187,0.1342951 -0.469412,0.2269871 -0.681003,0.2706572 -0.06421,0.01325 -0.09896,0.016269 -0.209866,0.01824 -0.09205,0.00159 -0.147514,-2.188e-4 -0.180389,-0.006 z"
         style="fill:#000000;fill-opacity:1;stroke:none;stroke-width:0.00632944" />
      <path
         inkscape:connector-curvature="0"
         id="path7002-0"
         d="m 5.2019236,7.0931993 c 0.122844,-0.02172 0.226135,-0.06227 0.320954,-0.1260081 0.05854,-0.03935 0.157314,-0.123112 0.151746,-0.1286798 -0.0014,-0.0014 -0.01079,6.879e-4 -0.02085,0.0047 -0.01006,0.004 -0.05531,0.01986 -0.100567,0.03527 -0.169036,0.05757 -0.309631,0.08484 -0.439917,0.08532 -0.15185,5.556e-4 -0.242671,-0.03187 -0.336592,-0.120228 -0.0481,-0.04525 -0.106448,-0.118115 -0.106448,-0.1329362 0,-0.0049 -0.02341,-0.006 -0.07754,-0.0039 -0.04264,0.00169 -0.182208,0.0048 -0.310142,0.0069 l -0.232607,0.0039 v 0.023471 c 0,0.02344 8.3e-5,0.023511 0.0807,0.06935 0.236187,0.1342951 0.469412,0.2269871 0.681003,0.2706571 0.06421,0.01325 0.09896,0.016269 0.209866,0.01824 0.09205,0.00159 0.147514,-2.191e-4 0.180389,-0.006 z"
         style="fill:#000000;fill-opacity:1;stroke:none;stroke-width:0.00632944" />
      <path
         inkscape:connector-curvature="0"
         id="path7019"
         d="m 3.7395906,9.0283609 c -0.01547,-0.03569 -0.112715,-0.324375 -0.216107,-0.641516 L 3.3354976,7.8102262 3.5038016,7.6394223 c 0.147973,-0.1501709 0.172912,-0.179736 0.206447,-0.2447401 0.02098,-0.04067 0.04368,-0.089 0.05044,-0.107414 0.01057,-0.02878 0.01238,0.09549 0.01293,0.8862547 3.44e-4,0.505854 -8.47e-4,0.919735 -0.0026,0.919735 -0.0018,0 -0.01592,-0.0292 -0.03139,-0.0649 z"
         style="fill:#000000;fill-opacity:1;stroke:none;stroke-width:0.00895118" />
      <path
         inkscape:connector-curvature="0"
         id="path7019-1"
         d="m 3.7773186,9.0283609 c 0.01547,-0.03569 0.112715,-0.324375 0.216107,-0.641516 L 4.1814116,7.8102262 4.0131076,7.6394223 c -0.147973,-0.1501709 -0.172912,-0.179736 -0.206447,-0.2447401 -0.02098,-0.04067 -0.04368,-0.089 -0.05044,-0.107414 -0.01057,-0.02878 -0.01238,0.09549 -0.01293,0.8862547 -3.44e-4,0.505854 8.47e-4,0.919735 0.0026,0.919735 0.0018,0 0.01592,-0.0292 0.03139,-0.0649 z"
         style="fill:#000000;fill-opacity:1;stroke:none;stroke-width:0.00895118" />
      <path
         sodipodi:nodetypes="ccccc"
         inkscape:connector-curvature="0"
         id="path5484-6"
         d="m 3.0891886,6.6284624 1.355737,0.018629 c 0.09524,0.1687621 0.251354,0.2403771 0.06906,0.507365 l -1.467523,-0.026819 c -0.177738,-0.127403 -0.06841,-0.337788 0.04272,-0.4991759 z"
         style="fill:#ffffff;fill-opacity:1;stroke:#000000;stroke-width:0.12142134;stroke-linecap:butt;stroke-linejoin:miter;stroke-miterlimit:4;stroke-dasharray:none;stroke-opacity:1" />
      <path
         sodipodi:nodetypes="ccccc"
         inkscape:connector-curvature="0"
         id="path5484-7"
         d="m 3.1729126,5.5536614 1.149877,0.015801 c 0.08078,0.1431361 0.213187,0.203877 0.05858,0.4303241 L 3.1366806,5.9770349 C 2.9859316,5.868977 3.0786606,5.690538 3.1729106,5.553655 Z"
         style="fill:#ffffff;fill-opacity:1;stroke:#000000;stroke-width:0.10298423;stroke-linecap:butt;stroke-linejoin:miter;stroke-miterlimit:4;stroke-dasharray:none;stroke-opacity:1" />
      <path
         inkscape:connector-curvature="0"
         id="path7057"
         d="m 3.7068716,5.0443003 c -0.150047,-0.7748431 -0.501433,-1.79081 -0.816893,-2.361893 l -0.0653,-0.118212 0.246208,-0.4767561 c 0.2836,-0.5491609 0.429993,-0.857412 0.571015,-1.20234695 l 0.09998,-0.244554 0.0032,1.14649905 c 0.0018,0.630575 0.0018,1.662102 0,2.2922829 l -0.0032,1.1457842 z"
         style="fill:#000000;fill-opacity:1;stroke:none;stroke-width:0.01265888" />
      <path
         inkscape:connector-curvature="0"
         id="path7057-9"
         d="m 3.8216476,5.0644402 c 0.150047,-0.7748429 0.501433,-1.7908098 0.816893,-2.3618929 l 0.0653,-0.118212 -0.246208,-0.4767561 c -0.2836,-0.5491609 -0.429993,-0.857412 -0.571015,-1.20234695 l -0.09998,-0.244554 -0.0032,1.14649905 c -0.0018,0.630575 -0.0018,1.6621018 0,2.292283 l 0.0032,1.1457839 z"
         style="fill:#000000;fill-opacity:1;stroke:none;stroke-width:0.01265888" />
      <path
         inkscape:connector-curvature="0"
         id="path7074"
         d="m 3.6863776,5.9644193 -0.33286,-0.0053 -0.01145,-0.01094 c -0.01216,-0.011621 -0.02065,-0.03143 -0.02057,-0.048 1.21e-4,-0.0258 0.01657,-0.06561 0.04451,-0.1077439 l 0.01713,-0.025821 0.136352,0.0018 c 0.07499,9.525e-4 0.220865,0.0029 0.324159,0.0044 0.103293,0.0014 0.209331,0.00249 0.23564,0.00259 l 0.04784,2.7e-5 0.02699,0.03388 c 0.03518,0.04417 0.04415,0.05996 0.04602,0.08093 0.0017,0.018981 -0.0057,0.04215 -0.02104,0.06605 l -0.0091,0.014229 -0.07536,-3.968e-4 c -0.04144,-2.241e-4 -0.225144,-0.0028 -0.408217,-0.0057 z"
         style="fill:#000000;fill-opacity:1;stroke:none;stroke-width:0.00287644" />
      <path
         inkscape:connector-curvature="0"
         id="path7076"
         d="m 4.4142886,6.4893132 c -0.02132,-3.969e-4 -0.240999,-0.0031 -0.4882,-0.0061 -0.247201,-0.0029 -0.571386,-0.0068 -0.720414,-0.0086 l -0.270958,-0.0033 -0.01734,-0.012721 c -0.0608,-0.04462 -0.05727,-0.1095399 0.01094,-0.2000128 0.024,-0.03185 0.0662,-0.07787 0.07297,-0.0796 0.0054,-0.0014 0.209921,1.259e-4 0.977117,0.0071 0.145979,0.0013 0.326612,0.0032 0.401414,0.0041 l 0.135995,0.00169 0.0067,0.0076 c 0.0037,0.0042 0.02448,0.024109 0.04617,0.0443 0.0789,0.0734 0.09291,0.09301 0.0927,0.1297469 -1.59e-4,0.02852 -0.01109,0.05265 -0.04093,0.09046 l -0.0204,0.02585 -0.07353,1.328e-4 c -0.04045,7.23e-5 -0.09096,-1.989e-4 -0.11228,-5.821e-4 z"
         style="fill:#000000;fill-opacity:1;stroke:none;stroke-width:0.00316459" />
      <path
         inkscape:connector-curvature="0"
         id="path7078"
         d="m 3.9279486,6.9476853 c -0.114882,-0.0023 -0.32045,-0.006 -0.456814,-0.0083 l -0.247937,-0.0041 -0.01604,-0.01683 c -0.02674,-0.02805 -0.03289,-0.06485 -0.01957,-0.11693 0.0079,-0.03072 0.03628,-0.09182 0.05918,-0.127222 l 0.01569,-0.024249 0.106039,0.00201 c 0.05832,0.00111 0.21914,0.0035 0.357373,0.0053 0.138233,0.00169 0.309906,0.0043 0.381496,0.0055 l 0.130162,0.0023 0.03545,0.04961 c 0.0468,0.0655 0.05701,0.08613 0.05865,0.118369 0.0016,0.03159 -0.0028,0.04923 -0.02204,0.08833 l -0.01546,0.03142 -0.07865,-5.291e-4 c -0.04326,-2.911e-4 -0.172641,-0.00241 -0.287524,-0.0046 z"
         style="fill:#000000;fill-opacity:1;stroke:none;stroke-width:0.00339639" />
    </g>
  </g>
</svg>
